<svg width="256" height="256" viewBox="0 0 256 256" fill="none" xmlns="http://www.w3.org/2000/svg">
<g clip-path="url(#clip0_201_2)">
<path d="M38 9H164L193.5 30.5L217 61V248H38V9Z" fill="#D9D9D9"/>
<path d="M219.109 49.9638L174.295 5.14995C173.112 3.95958 171.704 3.01582 170.153 2.37334C168.602 1.73086 166.94 1.40241 165.261 1.40703H45.6421C42.2538 1.41075 39.0053 2.75839 36.6094 5.15428C34.2135 7.55016 32.8659 10.7986 32.8622 14.1869V241.527C32.8659 244.915 34.2135 248.164 36.6094 250.56C39.0053 252.956 42.2538 254.303 45.6421 254.307H210.072C213.461 254.303 216.709 252.956 219.106 250.56C221.502 248.164 222.85 244.916 222.855 241.527V59.0008C222.859 57.3216 222.53 55.6582 221.887 54.107C221.244 52.5557 220.3 51.1475 219.109 49.9638ZM173.022 15.797L208.459 51.2368H176.611C175.66 51.2353 174.748 50.8566 174.076 50.1839C173.404 49.5112 173.026 48.5994 173.025 47.6484L173.022 15.797ZM210.072 245.877H45.6421C44.4889 245.876 43.3833 245.417 42.5679 244.601C41.7524 243.786 41.2937 242.68 41.2922 241.527V14.1869C41.2937 13.0337 41.7524 11.9282 42.5679 11.1127C43.3833 10.2973 44.4889 9.83852 45.6421 9.83703H164.595V47.6484C164.598 50.8345 165.865 53.8892 168.117 56.1424C170.37 58.3955 173.424 59.663 176.611 59.6668H214.425V241.527C214.423 242.681 213.964 243.787 213.148 244.602C212.332 245.418 211.226 245.876 210.072 245.877Z" fill="black"/>
<path d="M193.029 95.0335H118.887C117.77 95.0335 116.697 94.5894 115.907 93.799C115.116 93.0085 114.672 91.9364 114.672 90.8185C114.672 89.7006 115.116 88.6285 115.907 87.8381C116.697 87.0476 117.77 86.6035 118.887 86.6035H193.029C194.147 86.6035 195.219 87.0476 196.01 87.8381C196.8 88.6285 197.244 89.7006 197.244 90.8185C197.244 91.9364 196.8 93.0085 196.01 93.799C195.219 94.5894 194.147 95.0335 193.029 95.0335ZM98.2283 95.0335H62.6846C61.5667 95.0335 60.4946 94.5894 59.7042 93.799C58.9137 93.0085 58.4696 91.9364 58.4696 90.8185C58.4696 89.7006 58.9137 88.6285 59.7042 87.8381C60.4946 87.0476 61.5667 86.6035 62.6846 86.6035H98.2283C99.3462 86.6035 100.418 87.0476 101.209 87.8381C101.999 88.6285 102.443 89.7006 102.443 90.8185C102.443 91.9364 101.999 93.0085 101.209 93.799C100.418 94.5894 99.3462 95.0335 98.2283 95.0335Z" fill="black"/>
<path d="M120.264 59.6668H62.6846C61.5667 59.6668 60.4946 59.2227 59.7042 58.4323C58.9137 57.6418 58.4696 56.5697 58.4696 55.4518C58.4696 54.3339 58.9137 53.2618 59.7042 52.4714C60.4946 51.6809 61.5667 51.2368 62.6846 51.2368H120.267C120.821 51.237 121.369 51.3462 121.88 51.5582C122.391 51.7702 122.856 52.0808 123.247 52.4724C123.638 52.8639 123.949 53.3286 124.16 53.8401C124.372 54.3516 124.481 54.8997 124.481 55.4532C124.481 56.0067 124.371 56.5548 124.159 57.0661C123.947 57.5774 123.637 58.042 123.245 58.4333C122.854 58.8245 122.389 59.1349 121.877 59.3465C121.366 59.5582 120.818 59.667 120.264 59.6668ZM193.029 125.943H62.6846C61.5667 125.943 60.4946 125.499 59.7042 124.709C58.9137 123.918 58.4696 122.846 58.4696 121.728C58.4696 120.611 58.9137 119.538 59.7042 118.748C60.4946 117.958 61.5667 117.513 62.6846 117.513H193.032C193.586 117.514 194.134 117.623 194.645 117.835C195.156 118.047 195.621 118.357 196.012 118.749C196.403 119.141 196.714 119.605 196.925 120.117C197.137 120.628 197.246 121.176 197.246 121.73C197.245 122.283 197.136 122.831 196.924 123.343C196.712 123.854 196.402 124.319 196.01 124.71C195.619 125.101 195.154 125.412 194.642 125.623C194.131 125.835 193.583 125.944 193.029 125.943ZM136.824 156.853H62.6846C61.5667 156.853 60.4946 156.409 59.7042 155.619C58.9137 154.828 58.4696 153.756 58.4696 152.638C58.4696 151.521 58.9137 150.448 59.7042 149.658C60.4946 148.868 61.5667 148.423 62.6846 148.423H136.826C137.944 148.424 139.016 148.868 139.807 149.659C140.597 150.45 141.04 151.522 141.04 152.64C141.04 153.758 140.595 154.83 139.805 155.62C139.014 156.41 137.942 156.854 136.824 156.853ZM193.029 156.853H157.486C156.368 156.853 155.296 156.409 154.505 155.619C153.715 154.828 153.271 153.756 153.271 152.638C153.271 151.521 153.715 150.448 154.505 149.658C155.296 148.868 156.368 148.423 157.486 148.423H193.029C194.147 148.423 195.219 148.868 196.01 149.658C196.8 150.448 197.244 151.521 197.244 152.638C197.244 153.756 196.8 154.828 196.01 155.619C195.219 156.409 194.147 156.853 193.029 156.853ZM193.029 187.763H62.6846C61.5667 187.763 60.4946 187.319 59.7042 186.529C58.9137 185.738 58.4696 184.666 58.4696 183.548C58.4696 182.431 58.9137 181.358 59.7042 180.568C60.4946 179.778 61.5667 179.333 62.6846 179.333H193.032C194.15 179.334 195.222 179.778 196.012 180.569C196.802 181.36 197.246 182.432 197.246 183.55C197.245 184.668 196.801 185.74 196.01 186.53C195.219 187.32 194.147 187.764 193.029 187.763ZM193.029 218.673H157.486C156.368 218.673 155.296 218.229 154.505 217.439C153.715 216.648 153.271 215.576 153.271 214.458C153.271 213.341 153.715 212.268 154.505 211.478C155.296 210.688 156.368 210.243 157.486 210.243H193.029C194.147 210.243 195.219 210.688 196.01 211.478C196.8 212.268 197.244 213.341 197.244 214.458C197.244 215.576 196.8 216.648 196.01 217.439C195.219 218.229 194.147 218.673 193.029 218.673Z" fill="black"/>
</g>
<defs>
<clipPath id="clip0_201_2">
<rect width="256" height="256" fill="white"/>
</clipPath>
</defs>
</svg>
